<?xml version="1.0" standalone="no"?>
<!DOCTYPE svg PUBLIC "-//W3C//DTD SVG 20010904//EN"
 "http://www.w3.org/TR/2001/REC-SVG-20010904/DTD/svg10.dtd">
<svg version="1.0" xmlns="http://www.w3.org/2000/svg"
 width="490.000000pt" height="275.000000pt" viewBox="0 0 490.000000 275.000000"
 preserveAspectRatio="xMidYMid meet">

<g transform="translate(0.000000,275.000000) scale(0.100000,-0.100000)"
fill="#000000" stroke="none">
<path d="M2274 2535 c-3 -8 2 -36 11 -62 24 -70 45 -370 50 -722 5 -329 7
-339 61 -363 21 -10 34 -7 82 16 31 15 78 41 103 57 l46 29 6 103 c8 150 27
183 87 152 39 -20 71 -64 115 -157 36 -77 69 -119 115 -150 14 -8 23 -18 20
-21 -16 -17 -954 -367 -959 -359 -5 9 -745 92 -819 92 -61 0 -83 -74 -38 -127
l24 -28 291 -14 c160 -8 291 -17 291 -21 0 -4 -107 -46 -237 -95 -270 -100
-308 -117 -323 -144 -25 -47 0 -111 43 -111 10 0 158 61 330 136 171 75 386
168 477 206 91 38 188 80 215 93 90 42 990 425 999 425 3 0 -17 -45 -45 -100
-33 -68 -49 -113 -49 -139 0 -67 28 -191 54 -237 23 -41 23 -44 6 -44 -23 0
-566 51 -900 85 -37 3 -62 -3 -144 -39 l-100 -44 75 -6 c41 -3 324 -21 629
-40 l555 -34 85 -39 c79 -35 92 -38 175 -38 71 1 100 6 138 23 40 18 67 22
154 22 79 0 104 3 101 13 -3 7 -33 15 -68 20 -36 4 -67 10 -70 13 -3 3 7 16
23 29 15 13 27 32 27 42 0 14 2 15 9 5 6 -10 21 -1 58 35 27 26 34 35 15 18
-26 -22 -33 -25 -29 -12 4 10 7 23 7 28 0 6 4 8 9 5 4 -3 16 3 26 14 10 11 21
17 26 14 13 -7 39 40 58 103 16 56 19 59 76 88 44 22 61 36 63 53 5 34 -15 52
-62 53 -74 2 -89 11 -121 71 -39 72 -57 92 -125 133 -63 38 -158 64 -235 65
l-50 1 110 53 c61 30 105 55 98 55 -13 1 -165 -53 -360 -128 -73 -28 -138 -51
-144 -51 -13 0 -7 106 11 225 5 33 11 137 14 232 l6 171 -48 19 c-53 20 -243
24 -277 6 -16 -10 -13 -14 33 -37 28 -14 56 -34 61 -44 5 -10 7 -74 4 -152 -6
-159 2 -189 92 -339 30 -50 55 -94 55 -99 0 -4 -31 -18 -69 -32 l-68 -23 -46
37 c-65 53 -93 94 -123 178 -54 150 -119 242 -184 263 -60 19 -133 -25 -195
-118 -18 -27 -35 -45 -38 -40 -5 7 -35 229 -71 513 l-15 115 -48 44 c-70 64
-146 91 -159 56z m1336 -924 c0 -5 -7 -12 -16 -15 -14 -5 -15 -4 -4 9 14 17
20 19 20 6z m-54 -46 c4 -8 15 -15 25 -15 11 0 19 -7 19 -17 0 -15 2 -15 9 -4
8 13 15 12 50 -4 46 -20 80 -60 103 -120 29 -78 18 -152 -15 -104 -9 12 -18
16 -21 10 -10 -15 -36 -1 -36 19 0 16 -4 17 -31 10 -25 -7 -35 -5 -51 10 -13
11 -17 23 -12 32 6 11 5 11 -8 0 -13 -11 -20 -8 -41 18 -14 16 -29 30 -33 30
-5 0 -3 -5 4 -12 7 -7 12 -16 12 -20 0 -12 -58 -10 -65 2 -3 6 -16 10 -28 10
-20 0 -25 -10 -41 -80 -14 -56 -24 -79 -32 -76 -8 3 -11 -1 -7 -10 8 -22 -16
-44 -46 -42 -31 2 -83 -23 -62 -30 7 -2 17 2 22 9 6 11 11 11 20 2 6 -6 18 -9
25 -6 37 14 68 -68 37 -94 -10 -8 -12 -12 -5 -8 7 3 26 -1 44 -9 17 -9 42 -16
56 -16 14 0 36 -10 49 -21 20 -20 23 -20 29 -5 6 16 39 23 46 9 7 -16 67 -43
82 -37 10 4 16 1 16 -8 0 -7 10 -18 23 -23 13 -6 23 -21 25 -37 2 -16 9 -28
18 -28 8 0 14 -5 14 -12 0 -9 3 -9 12 0 14 14 -8 46 -25 35 -5 -3 -7 -1 -3 5
3 6 -7 24 -23 40 -30 29 -31 42 -4 42 7 0 13 -8 14 -17 0 -17 1 -17 8 0 4 10
11 18 16 18 6 0 18 7 27 16 23 21 38 8 38 -31 0 -20 7 -39 18 -47 15 -13 16
-12 3 3 -7 10 -12 32 -9 52 2 19 0 32 -4 30 -14 -9 -20 45 -9 79 6 19 8 42 5
52 -5 12 -1 23 11 31 10 8 13 14 7 14 -7 0 -12 8 -13 18 -1 9 -5 -2 -11 -25
-5 -25 -15 -43 -23 -43 -20 0 -30 21 -14 31 12 7 12 12 1 29 -15 24 -6 48 11
31 18 -18 35 28 25 67 -5 18 -6 42 -3 52 5 14 2 20 -9 20 -23 0 -20 22 6 44
21 18 22 18 41 -5 28 -34 63 -114 82 -184 35 -135 9 -248 -75 -334 -51 -52
-115 -91 -149 -91 -11 0 -23 -4 -26 -10 -10 -16 -55 -12 -55 4 0 8 -6 16 -12
19 -7 2 -9 8 -5 13 4 4 16 3 27 -3 29 -19 46 8 20 32 -18 17 -20 16 -44 -11
-25 -29 -34 -50 -17 -39 5 3 13 0 17 -7 4 -7 4 -10 -1 -6 -4 4 -14 3 -22 -3
-10 -9 -13 -8 -13 1 0 8 -9 11 -29 7 -37 -8 -77 11 -91 43 -11 23 -13 24 -25
7 -12 -17 -15 -16 -59 10 -25 15 -46 33 -46 38 0 6 -14 18 -30 27 -17 9 -30
23 -30 30 0 7 -12 24 -26 37 -14 14 -24 33 -22 45 1 12 -1 27 -6 34 -4 7 -5
20 -2 28 3 9 2 24 -4 34 -6 11 -6 36 -1 64 5 26 5 46 0 46 -16 0 -9 29 10 42
10 8 24 32 30 55 6 22 18 44 26 47 8 3 15 10 15 16 0 16 26 40 44 40 21 0 29
-17 11 -24 -8 -3 -15 -16 -14 -28 0 -15 3 -18 6 -8 3 8 12 22 20 31 10 12 11
23 4 43 -9 21 -8 26 6 26 9 0 21 7 27 14 6 8 35 24 63 35 52 20 53 20 63 1 13
-24 13 -53 0 -45 -11 7 -14 -8 -3 -18 12 -13 32 27 22 45 -6 11 -5 19 2 24 8
4 7 9 -2 15 -11 7 -10 9 4 9 10 0 20 -7 23 -15z m276 -7 c-7 -7 -12 -8 -12 -2
0 14 12 26 19 19 2 -3 -1 -11 -7 -17z m-208 3 c4 -5 -3 -7 -14 -4 -23 6 -26
13 -6 13 8 0 17 -4 20 -9z m61 -10 c3 -6 -4 -8 -16 -6 -30 6 -37 15 -11 15 11
0 23 -4 27 -9z m120 -38 l20 -15 -20 7 c-11 4 -40 13 -65 21 l-45 14 45 -6
c25 -4 54 -13 65 -21z m1 -45 c6 -10 -14 -38 -28 -38 -10 0 -28 41 -22 52 5 8
43 -2 50 -14z m48 7 c-4 -8 -11 -12 -16 -9 -6 4 -5 10 3 15 19 12 19 11 13 -6z
m-417 -152 c-16 -32 -32 -60 -35 -63 -12 -13 10 53 29 85 34 58 40 40 6 -22z
m119 5 c-15 -18 -40 -51 -56 -72 -17 -21 -30 -33 -30 -25 0 18 88 129 102 129
6 0 -1 -15 -16 -32z m641 1 c6 -6 9 -17 6 -25 -6 -16 -69 -38 -83 -29 -11 7
-14 48 -3 58 11 11 68 8 80 -4z m-588 -67 c-19 -21 -39 -47 -46 -58 -11 -17
-12 -17 -12 -1 -1 18 78 111 87 102 3 -2 -10 -22 -29 -43z m-213 -41 c0 -15
-3 -17 -13 -9 -7 6 -10 14 -7 19 9 15 20 10 20 -10z m-36 -31 c0 -5 -4 -10
-10 -10 -5 0 -10 5 -10 10 0 6 5 10 10 10 6 0 10 -4 10 -10z m66 -86 c-3 -9
-6 -20 -6 -25 0 -20 -18 -7 -22 16 -4 20 -1 25 14 25 14 0 18 -5 14 -16z m224
-252 c0 -15 -2 -15 -10 -2 -13 20 -13 33 0 25 6 -3 10 -14 10 -23z"/>
<path d="M3460 1541 c0 -5 5 -13 10 -16 6 -3 10 -2 10 4 0 5 -4 13 -10 16 -5
3 -10 2 -10 -4z"/>
<path d="M3640 1511 c0 -6 4 -13 10 -16 6 -3 7 1 4 9 -7 18 -14 21 -14 7z"/>
<path d="M3473 1502 c-8 -5 -8 -14 1 -37 l13 -30 -1 37 c-1 21 -1 38 -1 38 0
0 -5 -4 -12 -8z"/>
<path d="M3388 1476 c-3 -16 -1 -23 8 -19 6 2 15 0 19 -6 8 -15 35 -14 35 1 0
6 -3 8 -6 5 -12 -11 -43 13 -38 28 4 8 2 15 -4 15 -5 0 -12 -11 -14 -24z"/>
<path d="M3428 1493 c7 -3 16 -2 19 1 4 3 -2 6 -13 5 -11 0 -14 -3 -6 -6z"/>
<path d="M3631 1424 c0 -11 3 -14 6 -6 3 7 2 16 -1 19 -3 4 -6 -2 -5 -13z"/>
<path d="M3300 1365 c7 -8 19 -15 27 -15 13 0 13 3 3 15 -7 8 -19 15 -27 15
-13 0 -13 -3 -3 -15z"/>
<path d="M3275 1304 c0 -50 5 -49 15 4 4 25 3 39 -4 39 -6 0 -11 -19 -11 -43z"/>
<path d="M3315 1254 c-11 -8 -25 -12 -33 -9 -7 2 -10 0 -7 -5 9 -15 20 -12 46
10 28 23 23 26 -6 4z"/>
<path d="M3210 1219 c0 -5 5 -7 10 -4 6 3 10 8 10 11 0 2 -4 4 -10 4 -5 0 -10
-5 -10 -11z"/>
<path d="M3296 1107 c3 -10 9 -15 12 -12 3 3 0 11 -7 18 -10 9 -11 8 -5 -6z"/>
<path d="M3259 1076 c8 -9 19 -15 25 -13 6 2 16 -3 23 -12 7 -9 13 -11 13 -5
0 15 -19 30 -50 39 -22 7 -23 6 -11 -9z"/>
<path d="M3831 1064 c0 -11 3 -14 6 -6 3 7 2 16 -1 19 -3 4 -6 -2 -5 -13z"/>
<path d="M3298 1023 c-10 -2 -18 -8 -18 -13 0 -4 9 -6 20 -3 11 3 20 9 20 14
0 5 -1 8 -2 8 -2 -1 -11 -3 -20 -6z"/>
<path d="M3412 1010 c-16 -26 -16 -25 10 -27 15 -2 18 1 10 6 -7 4 -10 15 -6
24 8 23 2 21 -14 -3z"/>
<path d="M3446 1005 c4 -8 8 -15 10 -15 2 0 4 7 4 15 0 8 -4 15 -10 15 -5 0
-7 -7 -4 -15z"/>
<path d="M3586 978 c4 -19 2 -28 -6 -28 -10 0 -9 -4 1 -16 10 -13 10 -17 -2
-26 -12 -8 -12 -9 1 -6 17 5 23 65 9 88 -6 10 -7 6 -3 -12z"/>
<path d="M3500 946 c0 -8 4 -18 10 -21 6 -4 7 1 3 11 -5 13 -3 15 7 9 9 -5 11
-4 6 3 -10 17 -26 15 -26 -2z"/>
<path d="M3452 930 c0 -14 2 -19 5 -12 2 6 2 18 0 25 -3 6 -5 1 -5 -13z"/>
<path d="M3515 880 c11 -5 14 -9 8 -9 -15 -1 -17 -27 -3 -36 5 -3 7 0 4 8 -3
10 5 18 25 25 17 6 31 12 31 14 0 2 -19 4 -43 5 -31 1 -37 -1 -22 -7z"/>
<path d="M3686 871 c-3 -5 1 -11 9 -15 8 -3 15 -1 15 4 0 13 -18 22 -24 11z"/>
<path d="M3193 2473 c-63 -31 -65 -106 -5 -153 56 -44 152 -9 152 55 0 54 -51
116 -95 114 -11 0 -34 -7 -52 -16z"/>
<path d="M667 2365 c-194 -81 -455 -332 -513 -492 -20 -58 -18 -147 6 -193 40
-78 157 -137 350 -175 156 -31 268 -73 310 -115 25 -25 25 -70 1 -118 -46 -88
-238 -239 -416 -328 -60 -30 -75 -33 -98 -25 -19 7 -27 18 -27 33 1 30 31 96
70 153 40 58 63 112 50 120 -17 11 -130 -22 -170 -50 -109 -75 -208 -291 -181
-391 21 -79 108 -134 190 -119 174 30 532 243 688 408 43 45 123 156 123 170
0 3 9 25 21 51 l20 47 29 -25 c73 -61 152 -35 232 75 28 38 52 69 53 69 2 0
18 -25 36 -56 42 -74 134 -144 190 -144 47 0 49 9 18 96 -18 53 -20 78 -17
254 2 176 1 198 -16 223 -30 45 -98 49 -174 9 -29 -15 -38 -27 -45 -58 -25
-118 -49 -202 -68 -241 -19 -39 -24 -43 -59 -43 -22 0 -47 8 -61 19 -23 18
-24 25 -24 138 0 65 -4 124 -9 132 -10 16 -80 7 -113 -15 -21 -13 -23 -22 -23
-107 0 -50 -3 -102 -6 -114 l-6 -21 -36 25 c-93 63 -248 125 -426 168 -56 14
-112 33 -126 44 -89 65 -49 183 110 319 93 79 160 118 226 132 28 6 60 17 70
24 17 13 17 16 4 42 -23 44 -85 104 -106 104 -10 -1 -45 -12 -77 -25z"/>
<path d="M2165 2019 c-16 -6 -102 -17 -190 -25 -182 -16 -212 -24 -247 -62
-37 -39 -49 -68 -51 -117 -3 -63 26 -90 118 -110 89 -20 135 -46 135 -77 0
-34 -27 -68 -122 -161 -97 -94 -121 -140 -94 -182 44 -66 125 -70 214 -8 165
113 251 240 222 328 -13 41 -70 93 -145 136 -67 38 -91 69 -76 97 12 22 40 35
131 57 111 28 160 61 160 107 0 30 -7 32 -55 17z"/>
<path d="M4098 944 c-21 -11 -28 -22 -28 -43 0 -40 35 -81 69 -81 67 0 95 67
46 115 -28 28 -48 31 -87 9z"/>
<path d="M4050 764 c-12 -4 -16 -20 -16 -72 0 -37 -6 -116 -13 -177 -7 -61
-11 -179 -9 -265 3 -130 7 -162 23 -195 13 -25 28 -41 41 -43 19 -3 23 3 29
50 18 147 47 330 60 383 8 33 21 109 30 169 19 121 18 124 -44 145 -34 11 -71
13 -101 5z"/>
<path d="M4621 745 c-129 -36 -261 -138 -295 -227 -25 -64 -15 -127 25 -167
57 -58 132 -49 256 29 35 22 67 40 71 40 4 0 13 -13 20 -29 19 -42 51 -81 67
-81 21 0 41 46 59 132 18 89 21 174 5 183 -24 15 -63 -10 -136 -86 -111 -115
-160 -141 -197 -103 -14 14 -14 19 0 52 26 64 90 119 202 172 99 48 124 72 85
84 -49 14 -113 14 -162 1z"/>
<path d="M3024 701 c-17 -10 -39 -36 -49 -57 -23 -49 -12 -83 35 -106 19 -9
53 -25 75 -36 46 -22 57 -53 29 -83 -10 -11 -46 -40 -80 -64 -96 -69 -117
-116 -68 -154 50 -40 104 -27 217 52 66 46 107 107 107 157 0 29 -11 44 -77
107 -70 68 -75 75 -61 90 9 8 54 22 100 30 90 15 128 34 128 61 0 15 -16 17
-163 19 -143 3 -166 1 -193 -16z"/>
<path d="M3685 696 c-109 -41 -210 -118 -248 -190 -26 -51 -27 -131 -2 -170
53 -80 161 -72 298 23 l44 30 34 -52 c68 -103 98 -67 129 154 11 80 4 99 -37
99 -18 0 -50 -26 -117 -94 -51 -52 -104 -98 -118 -101 -78 -20 -98 21 -48 97
37 56 55 69 184 133 55 28 102 55 103 61 5 17 -52 34 -111 33 -28 0 -78 -10
-111 -23z"/>
</g>
</svg>
